# xmcd CD database file
#
# Track frame offsets:
#	150
#	23157
#	48664
#	61108
#	80429
#	92911
#	109984
#	129436
#	143737
#	157766
#	169017
#	193650
#	210971
#	233133
#	244618
#	266837
#	286147
#	291381
#	312777
#
# Disc length: 4324 seconds
#
# Revision: 3
# Processed by: cddbd v1.5.2PL0 Copyright (c) Steve Scherf et al.
# Submitted via: CDex 1.70beta2
#
DISCID=0710e213
DTITLE=Nina Simone - Songs To Sing - The Best Of 2
DYEAR=2006
DGENRE=Jazz
TTITLE0=To Be Young Gifted and Black (live)
TTITLE1=After You've Gone (live)
TTITLE2=I'll Look Around
TTITLE3=When I Was In My Prime
TTITLE4=Ain't No Use
TTITLE5=You'll Never Walk Alone
TTITLE6=Little Girl Blue
TTITLE7=African Mailman
TTITLE8=Central Park Blues
TTITLE9=He Needs Me
TTITLE10=Good Bait
TTITLE11=Plain Gold Ring
TTITLE12=The Assignment Song
TTITLE13=I Sing Just To Know I'm Alive (live)
TTITLE14=Gin House Blues (live)
TTITLE15=The Other Woman (live)
TTITLE16=You Took My Teeth (live)
TTITLE17=Pirate Jenny
TTITLE18=Zungo
EXTD=YEAR: 2006
EXTT0=
EXTT1=
EXTT2=
EXTT3=
EXTT4=
EXTT5=
EXTT6=
EXTT7=
EXTT8=
EXTT9=
EXTT10=
EXTT11=
EXTT12=
EXTT13=
EXTT14=
EXTT15=
EXTT16=
EXTT17=
EXTT18=
PLAYORDER=
